<?xml version="1.0" encoding="UTF-8"?>
<!DOCTYPE svg PUBLIC "-//W3C//DTD SVG 1.1//EN" "http://www.w3.org/Graphics/SVG/1.1/DTD/svg11.dtd">
<!-- Creator: CorelDRAW 2018 (64 Bit Versão de avaliação) -->
<svg xmlns="http://www.w3.org/2000/svg" xml:space="preserve" width="50.0685mm" height="38.6374mm" version="1.1" style="shape-rendering:geometricPrecision; text-rendering:geometricPrecision; image-rendering:optimizeQuality; fill-rule:evenodd; clip-rule:evenodd"
viewBox="0 0 5924.91 4572.2"
 xmlns:xlink="http://www.w3.org/1999/xlink">
 <defs>
  <style type="text/css">
   <![CDATA[
    .fil0 {fill:#2D3557;fill-rule:nonzero}
   ]]>
  </style>
 </defs>
 <g id="Camada_x0020_1">
  <metadata id="CorelCorpID_0Corel-Layer"/>
  <g id="_1975939319696">
   <path class="fil0" d="M4309.44 2340.87l544.62 907.69 0 -884.2c0,-29.95 24.03,-54.22 53.68,-54.22 29.64,0 53.69,24.27 53.69,54.22l0 1077.82c0,29.94 -24.05,54.23 -53.69,54.23 -21.3,0 -39.74,-12.57 -48.39,-30.74l-544.62 -907.7 0 884.21c0,29.94 -24.05,54.23 -53.69,54.23 -29.64,0 -53.69,-24.29 -53.69,-54.23l0 -1077.82c0,-29.95 24.05,-54.22 53.69,-54.22 21.31,0 39.74,12.56 48.4,30.73z"/>
   <path class="fil0" d="M3815.38 2364.36c0,-29.95 24.05,-54.22 53.69,-54.22 29.63,0 53.69,24.27 53.69,54.22l0 1077.82c0,29.94 -24.06,54.23 -53.69,54.23 -190.92,0 -401.44,-61.84 -587.49,-167.09 -179.48,-101.57 -337.23,-244.28 -433.95,-411.8 -14.83,-25.86 -6.08,-58.96 19.5,-73.94 8.45,-4.95 17.71,-7.28 26.84,-7.27l0 -0.13c247.37,0 401.23,-58.66 465.58,-134.12 20.05,-23.5 29.93,-48.06 29.75,-71.77 -0.17,-23.74 -10.59,-48.58 -31.18,-72.62 -66.61,-77.9 -224.85,-139.09 -475.32,-139.09 -29.63,0 -53.69,-24.28 -53.69,-54.22 0,-29.95 24.06,-54.22 53.69,-54.22 284.69,0 471.59,77.78 556.27,176.77 37.69,44.08 56.8,93.05 57.19,142.95 0.36,49.9 -18.18,98.88 -55.76,142.96 -72.46,84.98 -222.13,153.32 -448.67,168.61 86.81,116.61 207.5,217.22 342.17,293.41 153.01,86.59 323.16,141.08 481.38,151.33l0 -1021.81z"/>
   <path class="fil0" d="M2436.71 2364.36c0,-29.95 24.05,-54.22 53.69,-54.22 29.64,0 53.69,24.27 53.69,54.22l0 1077.82c0,29.94 -24.05,54.23 -53.69,54.23 -29.64,0 -53.69,-24.29 -53.69,-54.23l0 -1077.82z"/>
   <path class="fil0" d="M5666.79 2449.46c-95.76,-98.59 -154.55,-235.3 -173.23,-369.16 -4.75,-34.31 -7.96,-68.73 -10.09,-103.48 -0.44,-7.88 -3.04,-19.3 1.41,-27.23 10.17,9.42 20.34,18.79 30.53,28.21 24.97,24.6 48.85,50.65 70.47,78.48 69.52,89.26 123.15,202.04 132.58,312.87 3.35,38.77 3.79,77.72 -9.72,119.16 -4.41,-1.43 -37.25,-34.03 -41.95,-38.85zm-1807.15 1731.03c130.92,29.83 340.7,106.18 466.08,191.83 132.47,88.94 289.94,131.32 445.18,158.5 3.59,0.85 12.02,1.42 13.58,5.14 -0.24,1.74 -4.02,3.34 -5.44,3.96 -318.18,89.05 -494.55,-16.31 -741.86,-193.03 -146.97,-105.14 -242.97,-175.35 -434.08,-152.71 -111.11,13.02 -260.1,64.47 -348.82,129.92 -17.43,-8.38 -66.17,-19.47 -88.82,-27.22 0.14,-0.47 0.33,-1.02 0.5,-1.56 6.61,2.15 18.79,-5.56 25.13,-7.68 254.09,-83.53 389.29,-142.62 668.55,-107.15zm603.61 186.51c-76.02,-34.61 -134.48,-69.46 -134.48,-69.46 4.13,-12.63 207.38,-159.27 246.83,-187.09 38.15,-28.6 281.53,-217.11 332.13,-219.04 -59.51,182.62 -239.47,323.95 -411.44,401.68 -9.93,4.47 -22.28,8.3 -30.02,16.13 106.64,34.76 492.11,17.36 645.17,10.56 14.72,-0.97 16.97,2.13 16.97,2.13 -15.58,47.84 -258.32,113.28 -340.22,114.06 -81.9,0.77 -248.92,-34.36 -324.94,-68.97zm351.4 -120.43c33.57,-72.48 159.38,-265.81 195.23,-318.08 35.86,-52.25 210.71,-284.01 226.15,-278.97 -37.69,177.89 -172.45,418.97 -279.27,514.29 1.38,0.36 3.67,-0.56 3.67,-0.56 192,-70.91 356.2,-121.69 541.07,-214.15 20.02,-9.76 42.39,-20.65 62.03,-30.6 -106.23,155.67 -145.2,176.21 -278.75,243.48 -117.98,59.4 -337.38,100.89 -470.13,84.59zm428.25 -275.57c44.57,-130.49 43.49,-431.58 208.17,-638.65 -34.6,135.07 -34.19,382.01 -81.18,489.89 -0.85,2.58 -1.1,2.59 0.56,3.67 1.55,0.98 370.68,-276.59 438.93,-324.44 0,0 2.09,-1.05 2.09,-1.05 3.05,0.99 -4.9,19.29 -6.32,22.21 -89.59,226.02 -321.46,412.16 -562.25,448.38zm558.26 -597.69c-74.55,121.45 -149.07,176.79 -258.96,257.39 -3.96,-1.3 -5.1,-5.22 -5.63,-8.92 -11.8,-108.54 -55.97,-524.31 7.31,-606.31 -0.21,0.59 24.8,56.53 40.59,188.88 15.8,132.35 4.58,255.18 11.15,257.11 46,-59.24 254.35,-360.59 329.29,-410.76 -32.89,132.13 -49.95,209.32 -123.76,322.61zm-141.14 -87.97c-0.54,-0.18 -1.04,-0.33 -1.59,-0.52 -15.55,-96.31 -36.54,-172.42 -61.24,-266.15 -26.39,-143.64 -32.98,-197.34 -37.2,-343.62 -0.09,-3.04 2.57,-5.86 2.57,-5.86 45.8,79.01 155.09,303.67 160.4,380.24 1.03,0.33 2.12,0.7 3.16,1.02 0.9,-2.78 3.69,-6.64 5.5,-12.21 11.81,-34.36 20.25,-69.17 33.97,-102.25 46.68,-111.78 87.34,-198.45 125.53,-316.68 4.06,-12.48 7.24,-29.26 14.38,-38.93 35.95,121.25 16.05,242.01 -31.86,355.94 -70.48,168.95 -144.23,224.22 -213.63,349.03zm73.68 -434.77c-28.44,-9.27 -266.71,-504.72 -238.02,-538.12 12.3,22.35 209.04,348.82 215.79,349.45 2.32,0.76 2.78,-4.86 3.87,-7.51 38.92,-121.22 54.52,-201.12 48.88,-327.44 -0.49,-11.72 -5.5,-77.79 1.63,-83.44 53.8,85.04 68.59,180.17 76.99,280.13 -4.82,147.44 -57.45,207.87 -109.14,326.94z"/>
   <path class="fil0" d="M2545.01 867.88c0,29.57 -23.99,53.56 -53.56,53.56 -29.58,0 -53.57,-23.99 -53.57,-53.56 0,-141.22 -66.46,-357.67 -160.61,-526.87 -74.01,-133.01 -161.6,-233.88 -238.93,-233.88 -372.62,0 -711.79,273.49 -1004.77,666.74 -379.6,509.51 -679.59,1217 -877.25,1801.59l128.48 -95.08c1067.53,-790.54 2245.55,-1662.87 3019.91,-1662.87 2.2,0 4.35,0.13 6.48,0.39 97.17,4.98 196.7,128.89 289.34,305.54 120.98,230.61 238.91,557.19 319.4,807.23 9.01,28.08 -6.45,58.16 -34.53,67.17 -28.07,9.01 -58.15,-6.45 -67.16,-34.53 -79.2,-246.06 -194.83,-566.61 -312.28,-790.5 -75.44,-143.85 -146.45,-244.66 -198,-248.28l-3.27 0.09c-739.6,0 -1902.47,861.14 -2956.31,1641.54 -95.88,71 -191.08,141.51 -263.46,194.83l-0.07 -0.09c-13.24,9.7 -30.78,13.17 -47.63,7.83 -28.08,-8.9 -43.63,-38.87 -34.73,-66.95 197.8,-619.38 522.61,-1424.18 945.28,-1991.5 312.11,-418.93 678.8,-710.27 1090.55,-710.27 121.8,0 240.75,124.7 332.24,289.13 102.25,183.75 174.43,421.49 174.43,578.75z"/>
   <path class="fil0" d="M1478.62 2340.14c9.17,-17.42 27.16,-27.63 45.99,-28.18 1.68,-0.17 3.37,-0.24 5.1,-0.24 29.57,0 53.55,23.26 53.55,51.96l0 867.31 465.88 -888.87c8.45,-17.93 27.1,-30.4 48.73,-30.4 29.58,0 53.57,23.26 53.57,51.96l0 1079.15c0,28.68 -23.99,51.95 -53.57,51.95 -29.56,0 -53.54,-23.26 -53.54,-51.95l0 -862.41 -468.46 893.77c-13.4,25.55 -45.63,35.73 -71.96,22.73 -22.53,-11.12 -33.48,-35.62 -27.76,-58.46l0 -866.19 -470.75 894.07c-13.38,25.43 -45.51,35.52 -71.75,22.53 -26.21,-13.01 -36.6,-44.19 -23.21,-69.62l568.18 -1079.13z"/>
  </g>
 </g>
</svg>
